<?xml version="1.0" standalone="no"?>
<!DOCTYPE svg PUBLIC "-//W3C//DTD SVG 20010904//EN"
 "http://www.w3.org/TR/2001/REC-SVG-20010904/DTD/svg10.dtd">
<svg version="1.0" xmlns="http://www.w3.org/2000/svg"
 width="700.000000pt" height="700.000000pt" viewBox="0 0 700.000000 700.000000"
 preserveAspectRatio="xMidYMid meet">
<metadata>
Created by potrace 1.14, written by Peter Selinger 2001-2017
</metadata>
<g transform="translate(0.000000,700.000000) scale(0.100000,-0.100000)"
fill="#000000" stroke="none">
<path d="M2633 6134 c-522 -522 -856 -864 -845 -865 9 0 319 0 687 -1 l670 0
30 -21 c17 -12 117 -111 224 -219 l195 -197 0 -231 c1 -199 -1 -230 -14 -231
-94 -7 -476 -2 -485 6 -7 6 -56 123 -110 260 -53 138 -102 258 -107 268 -11
22 17 24 -435 -28 -23 -3 -66 -7 -96 -10 -29 -3 -63 -7 -74 -9 -11 -3 -56 -7
-99 -11 -43 -4 -87 -9 -98 -11 -10 -2 -51 -6 -90 -9 -39 -4 -77 -8 -83 -10
-10 -4 -13 -281 -13 -1345 0 -1065 3 -1340 13 -1341 6 0 21 -2 32 -3 11 -2 52
-6 90 -10 39 -4 84 -9 100 -11 29 -4 68 -9 173 -20 26 -3 65 -7 87 -10 22 -3
61 -7 88 -10 26 -3 66 -7 90 -10 126 -14 241 -26 286 -29 27 -1 18 -20 150
319 34 88 69 176 78 196 l15 36 248 1 c246 0 248 0 252 -22 2 -11 3 -116 3
-232 l-1 -211 -217 -219 -217 -219 -665 1 c-366 0 -665 -1 -665 -2 0 -1 375
-378 834 -837 l835 -835 861 862 861 861 -650 3 -651 2 0 98 c-3 597 0 3485 2
3487 4 4 177 6 399 6 l136 -1 1 -1597 c0 -879 1 -1606 1 -1615 1 -17 35 -18
564 -18 l563 0 706 706 706 706 -1732 1731 c-953 953 -1741 1739 -1752 1748
-18 15 -57 -22 -881 -847z"/>
<path d="M628 4129 c-340 -340 -618 -623 -618 -627 0 -6 1183 -1195 1243
-1249 4 -3 7 557 7 1245 0 689 -3 1252 -7 1251 -5 0 -286 -279 -625 -620z"/>
</g>
</svg>
